<?xml version="1.0" encoding="UTF-8" standalone="no"?>
<!-- Created with Inkscape (http://www.inkscape.org/) -->

<svg
   width="64"
   height="64"
   viewBox="0 0 64 64"
   version="1.1"
   id="svg1"
   inkscape:version="1.3.2 (091e20e, 2023-11-25, custom)"
   sodipodi:docname="favicon.svg"
   xmlns:inkscape="http://www.inkscape.org/namespaces/inkscape"
   xmlns:sodipodi="http://sodipodi.sourceforge.net/DTD/sodipodi-0.dtd"
   xmlns="http://www.w3.org/2000/svg"
   xmlns:svg="http://www.w3.org/2000/svg">
  <sodipodi:namedview
     id="namedview1"
     pagecolor="#ffffff"
     bordercolor="#000000"
     borderopacity="0.25"
     inkscape:showpageshadow="2"
     inkscape:pageopacity="0.0"
     inkscape:pagecheckerboard="true"
     inkscape:deskcolor="#d1d1d1"
     inkscape:document-units="px"
     showborder="true"
     labelstyle="default"
     inkscape:zoom="11.588215"
     inkscape:cx="11.90865"
     inkscape:cy="27.13964"
     inkscape:window-width="1920"
     inkscape:window-height="1009"
     inkscape:window-x="-8"
     inkscape:window-y="-8"
     inkscape:window-maximized="1"
     inkscape:current-layer="layer1"
     showguides="true" />
  <defs
     id="defs1" />
  <g
     inkscape:label="Layer 1"
     inkscape:groupmode="layer"
     id="layer1">
    <path
       d="M 9.3725233,47.986794 V 15.521308 h 6.8418997 v 32.465486 z m 22.1355437,0.491901 q -3.353872,0 -6.081688,-1.475704 Q 22.743281,45.482569 21.17814,42.888907 19.613,40.295246 19.613,37.075528 q 0,-3.219717 1.56514,-5.76866 1.565141,-2.548943 4.248239,-4.024647 2.683098,-1.520423 6.081688,-1.520423 3.398591,0 6.081689,1.475704 2.683098,1.475704 4.248239,4.069366 1.56514,2.548943 1.56514,5.76866 0,3.219718 -1.56514,5.813379 -1.565141,2.593662 -4.248239,4.114084 -2.683098,1.475704 -6.081689,1.475704 z m 0,-6.215844 q 1.475704,0 2.593662,-0.626056 1.117957,-0.670775 1.699295,-1.83345 0.626056,-1.207394 0.626056,-2.727817 0,-1.520422 -0.626056,-2.638379 -0.626056,-1.162676 -1.744013,-1.788732 -1.07324,-0.670775 -2.548944,-0.670775 -1.430985,0 -2.548943,0.670775 -1.117957,0.626056 -1.744013,1.788732 -0.626057,1.162675 -0.626057,2.683098 0,1.475704 0.626057,2.683098 0.626056,1.162675 1.744013,1.83345 1.117958,0.626056 2.548943,0.626056 z m 19.050045,6.215844 q -1.744014,0 -2.90669,-1.207394 -1.162676,-1.207394 -1.162676,-2.90669 0,-1.788732 1.162676,-2.951408 1.162676,-1.207394 2.90669,-1.207394 1.788732,0 2.906689,1.207394 1.162676,1.162676 1.162676,2.951408 0,1.699296 -1.162676,2.90669 -1.117957,1.207394 -2.906689,1.207394 z"
       id="text1"
       style="font-weight:bold;font-size:44.7183px;font-family:Outfit;-inkscape-font-specification:'Outfit Bold';fill:#0c0c0c;stroke-width:3.21572;stroke-opacity:0;paint-order:stroke fill markers"
       aria-label="lo." />
  </g>
</svg>
